<?xml version="1.0"?><svg xmlns="http://www.w3.org/2000/svg"  viewBox="0 0 30 30" width="50px" height="50px">    <path d="M 6 4 C 4.895 4 4 4.895 4 6 L 4 24 C 4 25.105 4.895 26 6 26 L 24 26 C 25.105 26 26 25.105 26 24 L 26 6 C 26 4.895 25.105 4 24 4 L 6 4 z M 13.494141 11.998047 C 14.827141 11.998047 15.749438 12.721391 15.773438 13.775391 L 14.4375 13.775391 C 14.4055 13.372391 14.021672 13.09375 13.513672 13.09375 C 13.004672 13.09375 12.669922 13.333891 12.669922 13.712891 C 12.669922 14.024891 12.921484 14.205219 13.521484 14.324219 L 14.255859 14.466797 C 15.379859 14.682797 15.884766 15.19175 15.884766 16.09375 C 15.884766 17.28075 14.977328 18 13.486328 18 C 12.047328 18 11.139234 17.322609 11.115234 16.224609 L 12.496094 16.224609 C 12.531094 16.638609 12.945922 16.902344 13.544922 16.902344 C 14.084922 16.902344 14.455078 16.643578 14.455078 16.267578 C 14.455078 15.951578 14.207641 15.781344 13.556641 15.652344 L 12.808594 15.501953 C 11.767594 15.305953 11.230469 14.737797 11.230469 13.841797 C 11.230469 12.730797 12.121141 11.998047 13.494141 11.998047 z M 8 12 L 9.5253906 12 L 9.5253906 18 L 8 18 L 8 12 z M 20.003906 12 C 21.715906 12 22.804687 13.147094 22.804688 14.996094 C 22.804687 16.851094 21.715906 18 20.003906 18 C 18.283906 18 17.195312 16.851094 17.195312 14.996094 C 17.195312 13.147094 18.296906 12 20.003906 12 z M 20.003906 13.199219 C 19.203906 13.199219 18.671875 13.901094 18.671875 14.996094 C 18.671875 16.097094 19.195906 16.800781 20.003906 16.800781 C 20.804906 16.800781 21.333984 16.097094 21.333984 14.996094 C 21.332984 13.901094 20.800906 13.199219 20.003906 13.199219 z"/></svg>