<?xml version="1.0"?><svg xmlns="http://www.w3.org/2000/svg"  viewBox="0 0 30 30" width="50px" height="50px">    <path d="M 9 5 A 1.0001 1.0001 0 1 0 9 7 L 21 7 A 1.0001 1.0001 0 1 0 21 5 L 9 5 z M 8 9 C 6.895 9 6 9.895 6 11 L 6 16 C 6 16.552 6.448 17 7 17 L 23 17 C 23.552 17 24 16.552 24 16 L 24 11 C 24 9.895 23.105 9 22 9 L 8 9 z M 7 19 L 7 20 C 7 21.105 7.895 22 9 22 L 10 22 L 10 23 C 10 24.105 10.895 25 12 25 L 18 25 C 19.105 25 20 24.105 20 23 L 20 22 L 21 22 C 22.105 22 23 21.105 23 20 L 23 19 L 7 19 z"/></svg>