<svg xmlns="http://www.w3.org/2000/svg"  viewBox="0 0 30 30" width="50px" height="50px"><path d="M 4 5 A 1.0001 1.0001 0 1 0 4 7 L 16 7 A 1.0001 1.0001 0 1 0 16 5 L 4 5 z M 4 9 L 4 12 C 4 13.105 4.895 14 6 14 L 5 14 C 2.791 14 1 15.791 1 18 L 1 20 C 1 22.209 2.791 24 5 24 L 6.5859375 24 L 6.2929688 24.292969 A 1.0001 1.0001 0 1 0 7.7070312 25.707031 L 8.4140625 25 L 11.585938 25 L 12.292969 25.707031 A 1.0001 1.0001 0 1 0 13.707031 24.292969 L 13.414062 24 L 25 24 C 27.209 24 29 22.209 29 20 L 29 14 C 29 11.791 27.209 10 25 10 C 22.791 10 21 11.791 21 14 L 14 14 C 15.105 14 16 13.105 16 12 L 16 9 L 4 9 z M 25 12 C 25.552 12 26 12.448 26 13 C 26 13.552 25.552 14 25 14 C 24.448 14 24 13.552 24 13 C 24 12.448 24.448 12 25 12 z M 7 17 L 13 17 L 13 21 L 7 21 L 7 17 z M 25 17 C 26.105 17 27 17.895 27 19 C 27 20.105 26.105 21 25 21 C 23.895 21 23 20.105 23 19 C 23 17.895 23.895 17 25 17 z"/></svg>