<?xml version="1.0"?><svg xmlns="http://www.w3.org/2000/svg"  viewBox="0 0 30 30" width="100px" height="100px">    <path d="M 9 2 A 1.0001 1.0001 0 1 0 9 4 L 21 4 A 1.0001 1.0001 0 1 0 21 2 L 9 2 z M 8 6 C 6.895 6 6 6.895 6 8 L 6 12 C 6.552 12 7 12.448 7 13 C 7 13.552 6.552 14 6 14 L 6 19 C 6 19.552 6.448 20 7 20 L 23 20 C 23.552 20 24 19.552 24 19 L 24 14 C 23.448 14 23 13.552 23 13 C 23 12.448 23.448 12 24 12 L 24 8 C 24 6.895 23.105 6 22 6 L 8 6 z M 7 22 L 7 23 C 7 24.105 7.895 25 9 25 L 10 25 L 10 26 C 10 27.105 10.895 28 12 28 L 18 28 C 19.105 28 20 27.105 20 26 L 20 25 L 21 25 C 22.105 25 23 24.105 23 23 L 23 22 L 7 22 z"/></svg>