<svg xmlns="http://www.w3.org/2000/svg"  viewBox="0 0 30 30" width="100px" height="100px"><path d="M 4 2 A 1.0001 1.0001 0 1 0 4 4 L 16 4 A 1.0001 1.0001 0 1 0 16 2 L 4 2 z M 4 6 L 4 10 C 4.552 10 5 10.448 5 11 C 5 11.552 4.552 12 4 12 L 4 14 C 4 15.105 4.895 16 6 16 L 5 16 C 2.791 16 1 17.791 1 20 L 1 22 C 1 24.209 2.791 26 5 26 L 6.5859375 26 L 6.2929688 26.292969 A 1.0001 1.0001 0 1 0 7.7070312 27.707031 L 8.4140625 27 L 11.585938 27 L 12.292969 27.707031 A 1.0001 1.0001 0 1 0 13.707031 26.292969 L 13.414062 26 L 25 26 C 27.209 26 29 24.209 29 22 L 29 16 C 29 13.791 27.209 12 25 12 C 22.791 12 21 13.791 21 16 L 14 16 C 15.105 16 16 15.105 16 14 L 16 12 C 15.448 12 15 11.552 15 11 C 15 10.448 15.448 10 16 10 L 16 6 L 4 6 z M 25 14 C 25.552 14 26 14.448 26 15 C 26 15.552 25.552 16 25 16 C 24.448 16 24 15.552 24 15 C 24 14.448 24.448 14 25 14 z M 7 19 L 13 19 L 13 23 L 7 23 L 7 19 z M 25 19 C 26.105 19 27 19.895 27 21 C 27 22.105 26.105 23 25 23 C 23.895 23 23 22.105 23 21 C 23 19.895 23.895 19 25 19 z"/></svg>