<?xml version="1.0"?><svg xmlns="http://www.w3.org/2000/svg"  viewBox="0 0 30 30" width="50px" height="50px">    <path d="M 9 3 A 1.0001 1.0001 0 0 0 7.9863281 4 L 7 4 C 5.8997129 4 5.0095427 4.8878372 5.0019531 5.9863281 A 1.0001 1.0001 0 0 0 4.984375 5.9863281 A 1.0001 1.0001 0 0 0 4 7 L 4 9 A 1.0001 1.0001 0 0 0 5 10.013672 L 5 18 L 25 18 L 25 10.013672 A 1.0001 1.0001 0 0 0 26 9 L 26 7 A 1.0001 1.0001 0 0 0 24.998047 5.9863281 C 24.990457 4.8878372 24.100287 4 23 4 L 14.013672 4 A 1.0001 1.0001 0 0 0 13 3 L 9 3 z M 15 6 C 17.761 6 20 8.239 20 11 C 20 13.761 17.761 16 15 16 C 12.239 16 10 13.761 10 11 C 10 8.239 12.239 6 15 6 z M 21 6 L 23 6 L 23 8 L 21 8 L 21 6 z M 15 8 C 13.343 8 12 9.343 12 11 C 12 12.657 13.343 14 15 14 C 16.657 14 18 12.657 18 11 C 18 9.343 16.657 8 15 8 z M 5 20 C 3.895 20 3 20.895 3 22 L 3 24 C 3 25.105 3.895 26 5 26 L 25 26 C 26.105 26 27 25.105 27 24 L 27 22 C 27 20.895 26.105 20 25 20 L 5 20 z M 7 22 L 23 22 C 23.552 22 24 22.448 24 23 C 24 23.552 23.552 24 23 24 L 7 24 C 6.448 24 6 23.552 6 23 C 6 22.448 6.448 22 7 22 z"/></svg>