<svg xmlns="http://www.w3.org/2000/svg"  viewBox="0 0 30 30" width="100px" height="100px"><path d="M 15 3 C 8.3844276 3 3 8.3844276 3 15 C 3 21.615572 8.3844276 27 15 27 C 21.615572 27 27 21.615572 27 15 C 27 8.3844276 21.615572 3 15 3 z M 15 5 C 16.053935 5 17.068552 5.1644589 18.021484 5.4648438 L 18.005859 10.935547 L 17.125 10.056641 L 17.068359 10 L 12.435547 5.3398438 C 13.254253 5.1231947 14.111383 5 15 5 z M 10.408203 6.1367188 L 14.248047 10 L 13 10 L 6.34375 10 C 7.296499 8.350601 8.7143941 7.0169408 10.408203 6.1367188 z M 20.019531 6.3554688 C 21.65289 7.3039447 22.989828 8.69737 23.865234 10.376953 L 20 14.240234 L 20 13.007812 L 20.019531 6.3554688 z M 5.4570312 12 L 10.929688 12 L 10.097656 12.833984 A 1.0001 1.0001 0 0 0 10.048828 12.880859 L 10 12.929688 L 5.3476562 17.580078 C 5.1289168 16.756116 5 15.894093 5 15 C 5 13.954155 5.161063 12.946564 5.4570312 12 z M 24.652344 12.417969 C 24.871396 13.242478 25 14.105246 25 15 C 25 16.045845 24.838937 17.053436 24.542969 18 L 19.070312 18 L 19.916016 17.152344 A 1.0005843 1.0005843 0 0 0 19.947266 17.123047 L 24.652344 12.417969 z M 10 15.757812 L 10 17.070312 L 10 23.65625 C 8.3574382 22.707451 7.011735 21.309725 6.1328125 19.623047 L 10 15.757812 z M 12 19.070312 L 12.828125 19.898438 A 1.0001 1.0001 0 0 0 12.876953 19.949219 L 17.580078 24.652344 C 16.756116 24.871083 15.894093 25 15 25 C 13.954155 25 12.946564 24.838937 12 24.542969 L 12 19.070312 z M 15.755859 20 L 17.070312 20 L 23.65625 20 C 22.707158 21.643067 21.308467 22.988282 19.621094 23.867188 L 15.755859 20 z"/></svg>